<?xml version="1.0" encoding="utf-8"?>
<!-- Generator: Adobe Illustrator 26.0.3, SVG Export Plug-In . SVG Version: 6.00 Build 0)  -->
<svg version="1.1" id="Calque_1" xmlns="http://www.w3.org/2000/svg" xmlns:xlink="http://www.w3.org/1999/xlink" x="0px" y="0px"
	 viewBox="0 0 1242 377.7" style="enable-background:new 0 0 1242 377.7;" xml:space="preserve">
<style type="text/css">
	.st0{fill:#FFFFFF;}
</style>
<path class="st0" d="M1236,24.8C1226.1,7.9,1211.2,0,1191.7,0c-190.1,0-380.2,0-570.3,0H53.2c-2.2,0-4.3,0-6.4,0.1
	C21.1,0.7,0.2,21.4,0.1,47.1C0,141.6,0,236.1,0.2,330.6c0,14.9,6.4,27.2,18,36.6c9.7,7.9,21,10.5,33.4,10.5
	c379.6,0,759.3-0.1,1138.9-0.1c1.6,0,3.2,0,4.8,0c25.6-0.6,46.6-21.5,46.6-47c0-94.5,0-189,0-283.5C1242,39.2,1239.9,31.5,1236,24.8
	z"/>
<g>
	<path d="M1236,24.8C1226.1,7.9,1211.2,0,1191.7,0c-190.1,0-380.2,0-570.3,0H53.2c-2.2,0-4.3,0-6.4,0.1C21.1,0.7,0.2,21.4,0.1,47.1
		C0,141.6,0,236.1,0.2,330.6c0,14.9,6.4,27.2,18,36.6c9.7,7.9,21,10.5,33.4,10.5c379.6,0,759.3-0.1,1138.9-0.1c1.6,0,3.2,0,4.8,0
		c25.6-0.6,46.6-21.5,46.6-47c0-94.5,0-189,0-283.5C1242,39.2,1239.9,31.5,1236,24.8z M1022.3,91.6c4.7-9.2,15.5-13.6,25.3-10.2
		c8.3,2.9,14,10.7,14.3,19.5c0,2.4-1,2.9-3.1,2.9c-5.4-0.1-10.7,0-16.1,0c-5.1,0-10.2,0.2-15.3-0.1c-3.5-0.2-3.7,1.3-3,4
		c3.2,12.8,19.3,17.9,30.1,9.4c1-0.8,1.8-2.6,3.5-0.5c1.3,1.7,0,2.4-0.9,3.3c-6.9,6.5-20.5,6.9-28.8,0.7
		C1019.7,114.3,1017.1,101.5,1022.3,91.6z M970,62.2c2.4,0.1,1.9,1.8,1.9,3.1c0,7.5,0,15,0,23.8c5.1-6.7,11.1-9,18.2-8.7
		c9.9,0.4,16.3,6,16.8,15.8c0.5,8.7,0.2,17.4,0.2,26.1c0,1.7-0.5,2.5-2.3,2.4c-1.8,0-1.9-1.1-1.9-2.4c0-7.2,0-14.5,0-21.7
		c-0.1-11-4.8-16.5-14.2-16.6c-10-0.1-16.5,6.2-16.8,16.5c-0.2,7,0,13.9-0.1,20.9c0,1.6,0.4,3.3-2.2,3.2c-2.4-0.1-1.9-1.8-1.9-3.2
		c0-18.7,0-37.5,0-56.3C967.7,63.8,967.3,62,970,62.2z M857.8,80.7c2.5,0,2.1,1.5,2.1,3s-0.1,2.9-0.1,4.4c5.8-6.5,12.8-8.4,20.9-7.4
		c7,0.8,12.5,5.4,13.7,12.3c1.7,9.9,0.5,20,0.8,30c0,1.4-0.8,1.8-2.1,1.8c-1.5,0-2.2-0.6-2.2-2.1c0-4.3,0-8.6,0-12.9
		c0-3.9,0.1-7.8-0.1-11.6c-0.4-8-4-12.5-10.9-13.7c-8.5-1.4-15.7,2.2-18.5,9.2c-1,2.5-1.4,5.2-1.4,7.8c0,6.6,0,13.1,0,19.7
		c0,1.4,0.8,3.4-1.9,3.5s-2.2-1.7-2.2-3.2c0-12.6,0-25.2,0-37.8C855.8,82.4,855.3,80.7,857.8,80.7z M820.6,80.4
		c12.9,0,22.2,9.5,22,22.5s-9.5,22.2-22.4,22.1c-12.6-0.1-21.7-9.6-21.6-22.5C798.7,89.7,807.9,80.4,820.6,80.4z M726.4,86.4
		c8.9-8.9,21.9-7.8,33.3,3.2c0-8.4,0-16,0-23.6c0-1.5-0.9-3.7,2.1-3.8s2.2,2.2,2.2,3.7c0,18.4,0,36.7,0,55.1c0,1.5,0.9,3.8-2,3.8
		s-1.8-2.3-2.1-3.8c-0.2-1.5,0.3-3.2-0.6-5.1c-4.8,6.6-11.1,9.7-19,9.2c-5.6-0.2-10.8-2.6-14.6-6.7
		C717.8,109.8,718.2,94.6,726.4,86.4z M603.7,62.2c3,0.1,1.9,2.4,2,3.9c0.1,9.2,0.1,18.5,0.1,27.7c0,9.1,0,18.2,0,27.3
		c0,1.5,0.8,3.8-2.2,3.7c-2.7-0.1-2-2.1-2-3.5c0-18.5,0-37,0-55.4C601.5,64.3,600.7,62,603.7,62.2z M465.3,80.9
		c1.1-0.2,2.5-0.5,3.1,1c0.5,1.1,0.9,2.2,1.3,3.4c4.2,11.1,8.3,22.3,12.5,33.5c1.8-0.3,1.6-1.8,2-2.8c4.1-10.6,8.1-21.2,12.2-31.8
		c0.6-1.5,0.7-3.5,3.3-3.4c2.3,0.1,2.3,1.9,2.9,3.3c4.5,11.6,8.9,23.2,13.3,34.9c1.6-1.1,1.7-2.7,2.2-4c4-10.5,8-21,11.9-31.5
		c0.9-2.4,2-3.3,4.8-2.2c-4.3,11.4-8.6,22.8-12.9,34.2c-0.5,1.5-1.1,3-1.8,4.5c-1,1.8-0.4,4.9-3.7,5s-3.1-2.9-3.9-4.8
		c-3.9-9.6-7.5-19.2-11.3-28.8c-0.5-1.2-0.5-2.7-2.1-3.7c-3.2,8.2-6.4,16.2-9.5,24.2c-1.4,3.5-2.8,7-4.1,10.5
		c-0.5,1.5-1.1,2.6-3.1,2.5s-2.2-1.2-2.7-2.5c-4.9-13-9.9-26-14.8-39C464.7,82.6,463.3,81.4,465.3,80.9z M352.7,121.3
		c0-8.7,0-17.4,0-26.1l0,0c0-8.7,0-17.4,0-26.1c0-1.8-0.1-3.5,2.6-3.5c8,0.2,16.1-0.3,24.1,0.3c17.2,1.3,28.3,13.2,28.1,29.5
		s-11.8,28.2-29.1,29.2c-7.6,0.4-15.2,0-22.9,0.2C352.6,124.9,352.7,123.3,352.7,121.3z M161.9,116.6c1-23.5,21.8-46.4,45.3-49.6
		c5.8-0.8,6.3-0.3,6.1,7.2c-0.5,24.6-19.7,47.1-42.8,50.2C162.5,125.5,161.5,124.7,161.9,116.6z M260.9,244
		c-6.2,17.6-15.8,33.8-28.3,47.7c-12.2,13.8-25.2,16.8-41.9,9.1c-14.8-6.8-29-6.7-43.7,0c-17.3,7.8-28.8,5.4-41.3-8.9
		C79,261.5,64.5,226.4,67.8,185.5c2-24.9,13.2-44.7,36.5-56.2c7.3-3.5,15.4-5.4,23.6-5.3c7.6-0.1,15.1,1.7,21.8,5.3
		c11,5.5,21.2,5.2,32.2,0c17-8,34.4-8.3,51.7-0.3c7.7,3.5,14.4,8.9,19.6,15.6c3.3,4.2,3.3,4.3-1,7.4c-20.5,14.7-27.5,39.8-17.4,62
		c4.8,10.5,13.1,18.9,23.6,23.8C261.6,239.2,262,240.8,260.9,244z M439.9,278.6h-5.3c-7.7,2.2-11.2-1.8-13.2-8.6
		c-1.3-4.2-3.5-8.1-5.1-12.2c-0.5-1.7-2.1-2.8-3.9-2.6c-15,0.1-30,0.1-45,0c-2.2,0-3,0.9-3.8,2.7c-2.4,6-5.1,11.8-7.5,17.8
		c-0.9,2.2-2,3.1-4.5,3c-4.3-0.2-8.6-0.2-12.9,0c-3.9,0.2-2.6-1.6-1.8-3.6c6.9-15.4,13.9-30.8,20.8-46.1
		c7.2-15.9,14.3-31.7,21.4-47.7c1.1-2.5,2.4-3.8,5.3-3.6c4.8,0.3,10.4-1.3,14.2,0.8c3.8,2,4.5,8.1,6.5,12.5
		c12.6,27.7,25.1,55.4,37.5,83.1C444.9,278.6,444.9,278.6,439.9,278.6z M437.9,125c-12.6-0.1-21.8-9.6-21.7-22.4
		c0-12.8,9.4-22.2,22-22.2c12.9,0,22.1,9.4,22,22.4C460.2,115.9,450.8,125.2,437.9,125z M527.5,267.8c-7.1,7.5-16,11-26.1,11.6
		s-19.3-1.9-27.4-10.1v29.1c0,8.1,0,8.1-8.2,8.1c-9.7,0-9.7,0-9.7-9.5c0-30.4,0-60.8-0.1-91.2c0-3.2,0.7-4.6,4.2-4.3
		c3.2,0.2,6.4,0.2,9.6,0c2.6-0.1,3.7,0.8,3.4,3.4c-0.2,1.7,0,3.5,0,6.2c8.9-8.6,19-11.4,30.5-10.1c11.5,1.3,20.7,6.2,27.3,15.7
		C541.3,231.8,539.7,254.8,527.5,267.8z M549.2,98.9c-0.5,7.5-0.2,15-0.3,22.5c0,1.5,0.6,3.4-2.1,3.4c-2.7,0-2.1-1.9-2.1-3.4
		c0-12.4,0-24.9,0-37.3c0-1.5-0.6-3.4,2.1-3.4c2.7,0,1.8,2.1,2,3.5s0,2.8,0,5.4c5.2-7.1,11.5-9.6,19-9.1c9.4,0.6,15.7,6.3,16.1,15.7
		c0.4,8.7,0.2,17.4,0.2,26.1c0,1.5-0.2,2.6-2.1,2.6s-2.1-1.2-2.1-2.6c0-7.4,0-14.7,0-22.1c-0.1-10.2-4.6-15.5-13.5-15.9
		C556.8,83.7,549.9,89.4,549.2,98.9z M627.8,266c-6.8,8.4-15.8,12.5-26.5,13.3s-20.2-1.4-28.5-10V300c0,6.5,0,6.5-6.3,6.5
		c-2.4-0.1-4.8-0.1-7.2,0c-3.5,0.4-4.6-0.7-4.5-4.4c0.2-11.8,0.1-23.6,0.1-35.4c0-20.4,0.1-40.7-0.1-61.1c0-3.3,0.8-4.6,4.2-4.3
		c3.2,0.2,6.4,0.2,9.6,0c2.7-0.2,3.7,0.8,3.4,3.5c-0.1,1.9-0.1,3.9,0,5.8c19.4-13.6,40.8-12.8,54.3,1.6
		C639.3,226.3,640.1,251,627.8,266z M640.8,125c-12.7,0.1-22-9.2-22.2-22c-0.1-13,9.1-22.6,21.9-22.6s22.2,9.4,22.2,22.4
		C662.7,115.6,653.5,125,640.8,125z M671.7,111.7c0.3-5.8,4.1-9.8,10.4-11c5.7-1.1,11.5-0.6,17.2-0.5c2.8,0,4-0.5,3.9-3.7
		c-0.3-7.7-4.2-11.9-11.9-12.4c-5.1-0.3-10.2,1.1-14.5,4c-1,0.7-1.8,1.7-3,0.1s-0.3-2.4,0.9-3.2c7.4-4.8,15.4-6.1,23.8-3.2
		c5.8,2,8.5,6.8,8.6,12.8c0.2,9.1,0.1,18.2,0.1,27.3c0,1.3,0.3,2.7-1.9,2.8s-2.2-1.4-2.2-2.9c0-1,0-2.1,0-4.1
		c-6.7,7.6-14.2,8.5-22.3,6.4C674.7,122.5,671.4,117.8,671.7,111.7z M751.4,274.7c-14.6,7.2-29.9,6.4-45.2,2.6
		c-6-1.4-11.8-3.9-16.9-7.3c-1.9-1.3-2.8-2.5-1.5-4.9c1.5-2.8,2.9-5.8,4-8.8c0.9-2.2,1.5-2.8,3.9-1.3c10.8,7.2,23.8,10.4,36.7,9
		c4.3-0.4,8.5-1.4,12-4.2c6-4.8,5.8-12.6-0.4-17c-4.1-3-9-4-13.8-5.3c-7.6-2.1-15.4-3.6-22.8-6.4c-10.6-4-18-10.7-18.5-22.8
		c-0.6-11.9,4.5-20.7,14.9-26.5c7.9-4.5,16.6-5.7,25.6-5.7c10.7,0.1,21,2,30.6,7c2.3,1.2,3.1,2.4,1.8,5c-1.4,2.8-2.5,5.6-3.5,8.5
		c-0.8,2.4-1.7,2.6-4,1.5c-10.4-5.4-21.3-7.8-33-5.8c-4,0.7-7.8,2-10.7,5c-4.8,5.1-4.1,12.3,1.6,16.4c3.2,2.3,7,3.3,10.7,4.4
		c8.5,2.4,17.2,4,25.5,7.1c10.7,4.1,18.3,10.8,18.7,23.1C767.7,260.5,762.1,269.5,751.4,274.7z M824.6,277.5c-7.6,2.8-16,2.8-23.6,0
		c-9.2-3.3-13.7-10.5-14.3-20c-0.4-6.4-0.1-12.9-0.1-19.3h-0.1c0-6.2-0.1-12.3,0-18.5c0.1-2.4-0.7-3.3-3.2-3.3c-3,0-7,1.4-8.9-0.6
		s-0.3-6.2-0.7-9.3c-0.6-3.9,1.2-4.6,4.7-4.6c8.1,0.2,8.1,0.1,8.1-7.8c0-9.7,0-9.7,9.9-9.7c8.1,0,8.1,0,8.1,7.9c0,9.7,0,9.7,9.9,9.7
		c11.2,0,11.1,0,10.9,11.2c0,2.8-1.1,3.3-3.6,3.3c-4.7-0.2-9.4,0-14.1-0.1c-2.1,0-3.2,0.4-3.1,2.8c0.1,11.5-0.1,23,0.1,34.6
		c0.2,9.3,8.1,13.5,17.4,9.3c3.3-1.5,4.1-0.5,4.9,2.2c0.4,1.3,1,2.5,1.4,3.8C830.5,275,830.4,275.5,824.6,277.5z M911.2,263.2
		c-7.3,10.4-19.7,16.3-37.7,16.2c-12.6-0.4-25.8-6.2-33-21.2c-6.9-14.2-6.1-28.5,3.1-41.5c12.5-17.7,40.8-21.5,59.2-8.2
		C919.5,220.6,923.4,245.8,911.2,263.2z M934.8,100.4L934.8,100.4c0.1-4.3,0-8.6,0.1-12.9c0.1-2.5-0.8-3.4-3.2-3.2
		c-1.1,0.1-2.1,0.1-3.2,0c-0.9,0.1-1.6-0.6-1.7-1.4c0-0.1,0-0.2,0-0.3c0-1.1,0.4-2.1,1.5-1.8c6.6,1.3,7.2-2.4,6.5-7.4
		c-0.2-1.4,0.4-2.2,2-2.3c1.8-0.1,2.2,0.8,2.3,2.4c0.7,7.2,0.7,7.2,7.9,7.2c1.3,0,2.7,0,4,0s2,0.3,2,1.8s-0.7,1.9-2,1.9
		c-3.1,0-6.2,0.2-9.2,0c-2.5-0.1-2.8,1.2-2.8,3.2c0.1,8.3-0.1,16.6,0.1,24.9c0.1,7.7,5.3,10.9,12.6,8c1.4-0.5,2.7-1.7,3.5,0.5
		c0.8,1.9-1,2.2-2.1,2.8c-9.2,4.6-18.1-0.7-18.3-10.9C934.7,108.7,934.8,104.5,934.8,100.4z M979.6,216.2c-1.6,3.4-5.9,0.9-9,1.6
		c-9.5,2.1-15.6,8.1-16.7,18.1c-1.2,11.7-0.3,23.5-0.5,35.3c-0.1,7.4,0,7.5-7.4,7.4c-3.4-0.1-7.8,1.5-10-0.8c-2-2.1-0.6-6.4-0.6-9.7
		c0-20.9,0-41.8-0.1-62.6c0-2.9,0.7-4.1,3.8-3.9c3.5,0.2,7,0.2,10.4,0c2.3-0.1,3.1,0.8,3,3s-0.1,4.5-0.1,6.7
		c6.8-7.2,14.9-9.7,23.8-10.4c2.5-0.2,3.9,0.2,3.6,3.1c-0.1,0.8-0.1,1.6,0,2.4C980,209.6,981,213.4,979.6,216.2z M1066.7,243.2
		c-0.3,2.6-1.6,2.6-3.5,2.6c-8.9,0-17.9,0-26.8,0c-8.7,0-17.4,0-26.1,0c-4.2,0-4.4,0.3-2.8,4.3c3.3,8.1,9.7,12.4,18,13.7
		c8.9,1.4,17.4,0.1,24.5-6.1c1.6-1.4,2.5-1.5,3.8,0.2c1.5,2.1,3.1,4,5,5.7c3.2,2.8,2.2,4.6-0.6,6.9c-11,8.9-23.6,10.4-36.9,8.1
		c-33.4-5.6-38.9-38.5-28.6-58c8.6-16.3,28.9-24,47.9-18.1C1057.8,207.9,1068.7,225,1066.7,243.2z"/>
	<path d="M496.5,216c-13.4,0-22.8,10-22.8,24.2s9.6,24,23,23.9c13.5-0.1,22.8-10,22.6-24.3C519.2,225.8,509.8,216,496.5,216z"/>
	<path d="M595.4,216c-13.4,0-22.9,10-22.8,24.2c0,14.2,9.4,24,23,23.9c13.3-0.1,22.5-9.7,22.6-23.9S608.8,216,595.4,216z"/>
	<path d="M394.5,206.9c-1.4-3.2-2.7-6.3-4.5-10.5c-6.3,14.5-12,28.1-17.8,41.6c-0.9,2.1-0.2,2.6,1.8,2.6c10.7-0.1,21.4-0.1,32.1,0
		c3,0,2.5-1.3,1.7-3.1C403.3,227.3,398.9,217.1,394.5,206.9z"/>
	<path d="M1028.2,215.1c-10.1-0.1-18.4,6-21.3,15.2c-1,3.1,0,3.7,2.9,3.6c6-0.1,12-0.1,18-0.1c6.1,0,12.3-0.1,18.5,0.1
		c3.1,0.1,3.6-0.8,2.8-3.7C1046.3,221.2,1038.3,215.2,1028.2,215.1z"/>
	<path d="M877,216c-13.4,0.1-22.8,10.1-22.7,24.4c0.1,14.1,9.4,23.8,22.8,23.8c13.6,0,22.9-9.9,22.9-24.1
		C900,225.9,890.4,215.9,877,216z"/>
	<path d="M357.1,117.7c0,1.7-0.1,3.2,2.4,3.2c6.7-0.2,13.4,0.3,20.1-0.3c14.5-1.4,23.5-11.2,23.5-25.2c0.1-14.1-8.6-23.9-23.2-25.5
		c-6.8-0.7-13.7-0.2-20.5-0.4c-2.5-0.1-2.4,1.5-2.4,3.2c0,7.5,0,15,0,22.5C357.1,102.7,357.1,110.2,357.1,117.7z"/>
	<path d="M741.9,121.2c10.4,0.1,17.8-7.7,17.8-18.5c0-10.7-7.3-18.4-17.5-18.5s-17.9,8-17.8,18.6
		C724.3,113.4,731.7,121.1,741.9,121.2z"/>
	<path d="M1026.8,100.5c4.6,0,9.3,0,14,0h0.1c4.6,0,9.3-0.1,14,0c2.4,0.1,2.9-0.9,2.4-3.2c-1.4-6.6-6.7-11.8-13.3-13
		c-9.1-1.7-17.9,4.3-19.7,13.4C1023.8,100,1024.8,100.5,1026.8,100.5z"/>
	<path d="M702.4,113.3c1.3-2.8,1.4-6.1,0.3-9c-0.8-1.9-3.9-0.6-5.9-0.8c-1.1-0.1-2.1-0.1-3.2,0c-3.7,0-7.6-0.2-11.2,0.7
		s-5.9,3.2-6.4,6.9c-0.6,3.3,0.8,6.6,3.6,8.4C686.6,124.4,698.8,121.1,702.4,113.3z"/>
	<path d="M640.7,84.2c-10.3,0-17.8,8.1-17.7,18.7s7.5,18.3,17.7,18.3c10.4,0,17.8-7.8,17.7-18.7C658.2,91.9,650.8,84.1,640.7,84.2z"
		/>
	<path d="M820.6,121.2c10.3,0,17.6-7.6,17.6-18.3c0.1-10.8-7.4-18.7-17.7-18.7c-10.1,0-17.6,7.8-17.7,18.4
		C802.8,113.3,810.4,121.2,820.6,121.2z"/>
	<path d="M438.2,84.2c-10.1,0-17.5,7.8-17.6,18.4c0,10.9,7.3,18.6,17.7,18.6c10.2,0,17.6-7.8,17.6-18.3
		C456,92.1,448.3,84.1,438.2,84.2z"/>
</g>
</svg>
