<?xml version="1.0" encoding="utf-8"?>
<!-- Generator: Adobe Illustrator 26.0.3, SVG Export Plug-In . SVG Version: 6.00 Build 0)  -->
<svg version="1.1" id="Calque_1" xmlns="http://www.w3.org/2000/svg" xmlns:xlink="http://www.w3.org/1999/xlink" x="0px" y="0px"
	 viewBox="0 0 1242 377.7" style="enable-background:new 0 0 1242 377.7;" xml:space="preserve">
<style type="text/css">
	.st0{fill:#FFFFFF;}
</style>
<path class="st0" d="M1243,47.5c0-15.3-6.5-27.8-18.4-37.3c-9.3-7.4-20-10.2-31.9-10.2H50.3h-2.8C21.3,0.3,0.1,21.2,0.1,47.4
	C0,141.6,0,235.8,0,330c-0.1,7.6,1.7,15,5.3,21.7c9.7,17.7,24.8,26.2,45.1,26.2h571.2H1190h6c26.1-0.6,47.1-21.3,47.1-47.5
	C1243.1,236.1,1243.1,141.8,1243,47.5z"/>
<g>
	<path d="M1243,47.6c0-15.3-6.5-27.8-18.4-37.3c-9.3-7.4-20-10.2-31.9-10.2c-380.8,0-761.6,0-1142.4,0h-2.8
		C21.3,0.4,0.1,21.3,0.1,47.5C0,141.7,0,235.9,0,330.1c-0.1,7.6,1.7,15,5.3,21.7C15,369.5,30.1,378,50.4,378
		c190.4,0,380.8,0,571.2,0H1190c2,0,4,0,6,0c26.1-0.6,47.1-21.3,47.1-47.5C1243.1,236.2,1243.1,141.9,1243,47.6z M909.1,62.2
		c3-0.2,2.3,2,2.3,3.6c0,7.3,0,14.7,0,23.5c5.7-7.8,12.7-9.5,20.6-8.6c7.3,0.8,12.8,5.7,13.9,13c1.5,9.7,0.4,19.5,0.6,29.3
		c0,1.7-1,1.9-2.4,1.9c-1.7,0-1.9-1-1.9-2.4c0-6.3,0-12.6,0-18.9c0-1.2,0-2.4,0-3.6c-0.2-10.4-4.9-15.7-14.1-15.7
		c-9.8-0.1-16.4,6-16.7,15.7c-0.2,7.1,0,14.2-0.1,21.3c0,1.6,0.7,3.7-2.3,3.6c-2.8-0.1-1.8-2.2-1.8-3.6c-0.1-18.5-0.1-37,0-55.5
		C907.2,64.5,906.3,62.4,909.1,62.2z M797.1,80.7c2.4,0,2,1.6,2.1,3s0,3,0,4.4c5.7-6.2,12.3-8.2,20-7.5c8.2,0.7,14.1,6.1,15,14.2
		c0.9,9.2,0.2,18.5,0.4,27.7c0,1.4-0.3,2.3-2,2.3s-2.3-0.8-2.3-2.5c0-7.5,0-15,0-22.5c-0.1-10.2-4.7-15.3-13.8-15.6
		c-9.8-0.3-16.6,5.8-17,15.4c-0.3,7.2-0.1,14.5-0.1,21.7c0,1.4,0.7,3.4-2,3.5s-2.2-1.7-2.2-3.3c0-12.6,0-25.2,0-37.8
		C795.1,82.4,794.7,80.7,797.1,80.7z M650.6,62.2c2.5-0.1,2.3,1.6,2.3,3.2V94c0,9.3,0,18.5,0,27.8c0,1.4,0.5,3-1.9,3.2
		c-2.6,0.1-2.3-1.6-2.3-3.2c0-18.8,0-37.6,0-56.3C648.7,64,648.2,62.3,650.6,62.2z M538.6,111.8c0.3-5.8,4.1-9.8,10.5-11
		c5.7-1,11.5-0.6,17.3-0.5c3,0.1,4-0.8,3.8-3.8c-0.3-7.4-3.8-11.5-11.2-12.2c-5.3-0.5-10.5,0.9-14.9,3.8c-1,0.7-2,2.1-3.3,0.2
		s0.2-2.6,1.4-3.4c6.3-4.1,13.9-5.4,21.2-3.6c6.4,1.5,10.4,5.9,10.7,12.5c0.4,9.6,0.2,19.3,0.3,29c0,1.4-0.3,2.3-2,2.3
		s-2.1-0.8-2.1-2.2c0-1.4,0-2.7,0-5c-6.7,7.7-14.3,8.6-22.4,6.5C541.5,122.6,538.2,117.9,538.6,111.8z M500.4,63.2
		c1.9,0.2,3.4,1.1,3.5,3.1c0.3,1.7-0.9,3.4-2.6,3.7c-0.2,0-0.4,0-0.6,0c-1.7,0.2-3.3-1-3.5-2.7c0-0.1,0-0.2,0-0.3
		C496.9,64.8,498.3,63.6,500.4,63.2z M500.4,124.9c-2.4-0.1-2-1.7-2-3.1c0-12.7,0-25.5,0-38.2c0-1.5-0.1-3,2.2-2.9
		c2.3,0.1,2,1.7,2,3.1c0,6.4,0,12.9,0,19.3c0,6.2,0,12.3,0,18.5C502.6,123.1,503.1,125,500.4,124.9z M445.3,111.5
		c0.4-5.7,4.4-9.7,10.7-10.8c5.7-1,11.5-0.6,17.3-0.5c2.9,0,3.6-0.9,3.5-3.7c-0.2-7.6-3.9-11.8-11.4-12.4c-5.3-0.4-10.5,1-14.9,4
		c-1.2,0.8-2.2,1.5-3.2-0.2c-1.1-1.7,0.1-2.2,1.1-2.8c7.4-4.8,15.4-6.2,23.8-3.2c5.1,1.6,8.5,6.3,8.5,11.6c0.4,9.6,0.2,19.3,0.3,29
		c0,1.3-0.1,2.4-1.9,2.4c-1.9,0-2.2-1-2.2-2.5c0-1.2,0.4-2.4-0.7-3.9c-5,6.1-11.6,7.2-18.8,6.4C449.6,124,444.8,118.6,445.3,111.5z
		 M398,81.1c2.7-1.1,4.1,0,5.2,2.6c4.6,10.7,9.4,21.3,14.2,32c0.5,1.2,1.1,2.3,1.8,3.6c1.7-1.3,2-3.1,2.7-4.6
		c4.7-10.2,9.3-20.5,13.8-30.8c1-2.5,2.2-3.9,5.5-2.6c-6.4,14.1-12.7,28.1-19,41.9c-0.7,1.6-2.5,2.3-4,1.7c-0.7-0.3-1.3-0.8-1.6-1.5
		c-6.3-13.9-12.4-27.9-18.6-41.8C397.9,81.4,398,81.3,398,81.1z M342,120.8c7.8-17.1,15.7-34.1,23.5-51.2c0.8-1.7,1-3.9,3.8-4
		s3.2,2.1,4,3.8c7.9,17.2,15.8,34.4,23.6,51.6c0.5,1.1,2.3,2.8,0.6,3.7c-1.9,1-3.7,0.1-4.7-2.3c-1.5-3.9-3.5-7.6-5.1-11.4
		c-0.8-2-1.9-2.9-4.2-2.8c-9.5,0.1-19,0.1-28.6,0c-1.8-0.2-3.4,0.9-4,2.6c-1.5,3.7-3.4,7.3-4.9,11c-1.1,2.8-2.6,4-5.5,2.8
		C340.6,123.1,341.5,122,342,120.8z M83.8,67c30.2,15.4,60.3,31,90.6,46.2c22.8,11.5,44.4,24.9,66.6,37.3c2.4,1.3,2.3,2.1,0.4,4
		c-10.9,10.4-21.8,20.9-32.7,31.5c-1.6,1.6-2.6,2-4.5,0.2c-40.6-39.4-81.3-78.7-122-118C82.1,68.1,82,68,82,67.9l0,0
		c-1-0.4-1.8-1.2-2.1-2.3C81.6,65,82.7,66.2,83.8,67z M70,320V68.8c8.4,8.2,16.1,15.6,23.8,23.1c34.3,33.2,68.7,66.4,103.1,99.5
		c2.4,2.3,2.9,3.5,0.1,6.1c-41.3,39.7-82.5,79.4-123.6,119.3C72.4,317.8,71.4,318.6,70,320z M236.8,235.8
		c-45.8,26.8-92.6,52-139,77.6c-4.4,2.5-8.9,4.8-13.4,7.1l0,0l0,0c-0.7,1.1-2,1.7-3.4,1.5c0.2-1,1-1.2,1.6-1.5
		c22.7-22,45.4-44,68.2-66.1c17.6-17.1,35.3-34.1,52.9-51.2c2-2,3.2-2.4,5.4-0.1c9.3,9.3,18.7,18.4,28.3,27.4
		C240,233,239.9,233.9,236.8,235.8z M298.9,199.8c-16.1,9.3-32.3,18.6-48.3,28c-1.8,1-2.8,0.6-4.1-0.7c-10.5-10.2-21-20.3-31.5-30.4
		c-1.6-1.5-1.9-2.4-0.1-4.1c11.7-11.2,23.4-22.5,35-33.8c1.6-1.5,2.7-1.5,4.5-0.5c14.7,8.6,29.4,17.1,44.2,25.5
		c3.1,1.8,5,4.3,5.1,8.2C303.6,195.3,301.8,198.3,298.9,199.8z M352.4,238c3.6,15,16.2,25.3,32.3,26.1c6.9,0.4,13.7-0.8,20-3.6
		c1.8-0.6,3-2.4,2.8-4.2c-0.1-8.2,0-16.4-0.1-24.5c-0.1-2.7,0.8-3.5,3.4-3.4c3.6,0.2,7.2,0.2,10.9,0c2.6-0.1,3.2,0.9,3.2,3.3
		c-0.1,5.6,0,11.3,0,16.9c0,5.4-0.1,10.7,0,16.1c0.3,2-0.7,4-2.5,5c-20.8,12.7-42.4,15-64.2,3.5c-18.9-10-28.2-31.2-24.3-52.6
		c3.5-21.1,20.2-37.5,41.4-40.6c16.3-2.6,31.9-0.7,45.4,9.8c6.1,4.7,6,4.8,0.5,10.1c-2,2-3.8,4.9-6.2,5.5c-2.6,0.6-4.4-2.9-6.7-4.3
		c-13.1-7.8-26.5-8.3-39.8-1.3C354.9,206.6,348.7,222.3,352.4,238z M518.4,256.1c-5.8,14.7-19.9,23.6-40.5,23.6
		c-12.1-0.3-24.8-5.7-32.3-19.6c-7.1-13.4-6.8-27.2,1.3-40.2c10.5-16.8,35.3-22.4,54.2-12.6C518.4,216.3,525.9,237.3,518.4,256.1z
		 M522.4,124.9c-2.3-0.1-2.1-1.6-2.1-3.1c0-18.9,0-37.8,0-56.7c0-1.5-0.2-3,2.1-3c2.6,0,2.3,1.7,2.3,3.3c0,9.4,0,18.8,0,28.1v28.1
		C524.8,123.3,525,125,522.4,124.9z M604.7,264.3c-10.9,15.4-34.7,20.2-52.7,11c-16.7-8.5-24.3-28.2-18.3-46.8
		c5.2-15.8,20.1-25.9,41.3-25.7c12.7,0.4,25.8,6.1,32.9,20.8C614.7,237.5,613.8,251.5,604.7,264.3z M595.8,115.6c0,2.7,0,4.5,0,6.4
		c0,1.5,0.2,3-2.1,3s-1.9-1.8-1.9-3.1c0-13,0-26,0-39c0-5.4-0.1-10.7,0.1-16.1c0.1-1.6-1.5-4.6,2.1-4.4c3.6,0.1,1.8,3.1,1.9,4.6
		c0.2,7.3,0.1,14.7,0.1,23.2c5.9-7.6,12.9-10.5,21.3-9.4c5.3,0.6,10.1,3.2,13.4,7.4c7.5,9.2,6.4,24.2-2.3,31.8
		C618.9,128.1,606,126.7,595.8,115.6z M703.7,266.7c0,3.6-0.2,7.2-0.8,10.8c-2.3,15.2-11,25-26,28.1c-16.1,3.3-31.7,1.7-46.5-6.3
		c-3.3-1.8-4.5-3.6-1.8-7c2-2.5,2.8-6.6,5.2-7.9c2.8-1.5,5.3,2.4,8.2,3.5c8.2,3.3,16.7,5,25.5,3.8c13.4-1.7,20.4-11.5,17.9-25.1
		c-20.7,12.7-42,11-54.7-4.4c-11.3-13.6-10.8-34.8,0.9-47.8c13.3-14.6,34.9-15.6,54.6-2.4c0.1-0.2,0.4-0.4,0.4-0.6
		c0.7-8,0.7-8,8.9-8c8,0,8,0,8,8C703.7,229.9,703.7,248.3,703.7,266.7z M704.5,103.9c-5.1-0.2-10.2,0-15.3,0
		c-5.2,0-10.5,0.2-15.7-0.1c-3.5-0.2-3.7,1.1-3,4c3,12.6,19.2,18,29.8,9.8c1-0.8,1.9-3.2,3.8-0.9c1.8,2.1-0.4,2.8-1.5,3.7
		c-6.6,5.5-17.8,6.3-25.8,1.9s-12.1-13.2-10.8-22.9c1.2-9.1,7-16,15.3-18.3c11.1-3.1,22.6,3.3,25.8,14.4c0.4,1.5,0.7,3,0.8,4.6
		C708,102.9,707.4,104.1,704.5,103.9z M740.6,278.8c-3.5-0.2-7-0.2-10.5,0c-2.6,0.1-3.5-0.7-3.4-3.4c0.2-7.5,0.1-15,0.1-22.5
		c0-24.8,0.1-49.6-0.1-74.4c0-3.5,0.9-4.8,4.5-4.4c3.2,0.3,6.4,0.3,9.6,0c2.8-0.2,3.7,0.8,3.7,3.6c-0.1,16.4-0.1,32.7-0.1,49.1
		c0,16.1-0.1,32.2,0.1,48.2C744.5,278,743.6,279,740.6,278.8z M737.9,102.6c0.1-13,9.4-22.1,22.1-22.1c12.9,0,22,9.4,21.9,22.5
		c-0.1,12.9-9.3,22.1-22,22.1C747,125.1,737.8,115.6,737.9,102.6z M838.2,244.3c-0.1,2.7-1.7,2.5-3.5,2.5c-8.7,0-17.4,0-26.1,0
		c-8.6,0-17.2,0.2-25.7-0.1c-3.9-0.1-3.9,1.3-2.7,4.2c2.3,6,7.3,10.6,13.5,12.3c10.1,3.1,19.7,2,28.1-4.8c1.8-1.5,2.8-1.4,4.1,0.4
		c1,1.4,2.3,2.6,3.4,4c4.5,5.2,4.5,5.2-0.8,9.3c-23.3,17.9-60.8,4.8-66.3-23.1c-3.6-18.1,5-35.8,20.9-42.9
		c16.9-7.6,37-3.2,47.5,10.4C836.6,224.8,838.6,234.2,838.2,244.3z M892.1,124c-9.6,4.2-17.7-1.2-17.8-11.7c0-3.9,0-7.8,0-11.7
		c0-4.3-0.2-8.6,0-12.9c0.1-2.7-0.9-3.6-3.5-3.3c-0.9,0.1-1.9,0.1-2.8,0c-1.3,0-1.9-0.6-1.9-2c0-1.2,0.6-1.9,1.7-1.7
		c6.4,1.3,7-2.3,6.4-7.2c-0.2-1.6,0.3-2.5,2.2-2.5c2,0,1.9,1.3,2,2.7c0.4,6.9,0.4,6.9,7.4,6.9c1.6,0,3.2,0,4.8,0
		c1.1,0,1.8,0.4,1.8,1.6c0.1,1.2-0.5,2-1.8,2.1c-3.1,0-6.2,0.1-9.2,0c-2.2-0.1-3.1,0.6-3.1,3c0.1,8.4-0.1,16.9,0.1,25.3
		c0.2,7.4,5.4,10.7,12.5,8c1.2-0.5,2.5-2.2,3.6,0.2C895.7,123.4,893.3,123.5,892.1,124z M961.2,244.8c-7.3,4-15.4,5.3-23.7,5.5
		c-6.6,0.1-13.2,0.2-19.7,0c-2.9-0.1-4,0.7-3.9,3.8c0.2,7.1,0,14.2,0.1,21.3c0.1,2.6-0.8,3.5-3.4,3.4c-3.6-0.3-7.2-0.3-10.8,0
		s-4.1-1.2-4.1-4.4c0.1-15,0.1-30,0.1-45c0-15.2,0.1-30.3-0.1-45.5c0-3,0.8-3.9,3.8-3.9c12.6,0.2,25.2,0,37.8,0.1
		c8.3,0,16.3,1.4,23.7,5.3c11.8,6.3,17.2,16.4,17.3,29.6C978.3,228.3,973,238.4,961.2,244.8z M960.6,111c-3-8.9-1.8-17.4,4.8-24.3
		c5.9-6.2,13.4-7.5,21.5-5.2c8.4,2.4,14.5,11.1,14.5,19.8c0,2.2-1,2.7-2.9,2.7c-5.5,0-11,0-16.5,0c-5,0-9.9,0.2-14.9-0.1
		c-3.8-0.2-3.9,1.5-3.2,4.3c3,12,18.5,17.4,29,10c0.4-0.3,0.9-0.6,1.3-1c1-0.8,1.7-2.2,3.2-0.5s0,2.6-1,3.5
		C985.3,130.1,965.4,125.1,960.6,111z M1009.1,278.9c-2.7-0.3-5.3-0.3-8,0c-3.6,0.4-4.8-0.7-4.8-4.5c0.2-16,0.1-32,0.1-47.9
		c0-16,0.1-31.9-0.1-47.9c0-3.6,1.1-4.7,4.5-4.4c2.8,0.3,5.6,0.3,8.4,0c3.6-0.4,4.8,0.8,4.8,4.6c-0.2,21.5-0.1,42.9-0.1,64.4
		c0,10.3-0.2,20.7,0.1,31C1014.2,278.1,1012.9,279.3,1009.1,278.9z M1100.1,276.2c0,1.9-0.8,2.6-2.6,2.5c-3.4-0.2-6.7-0.2-10.1,0
		c-3.3,0.3-4.3-1-3.9-4.1c0.1-1.4,0.1-2.9,0.1-4.3c-10.8,10.5-23,11.1-35.6,7.5c-10.7-3-16.6-11.5-16.2-21.8
		c0.5-10.2,6.8-17.4,17.8-20c9.1-2.1,18.4-1.3,27.7-1.4c5.7-0.1,6-0.3,4.7-5.9c-1-5.3-5.2-9.5-10.5-10.5c-9.5-2.3-19.6-0.7-27.8,4.6
		c-2.4,1.5-3.4,1.3-4.4-1.2c-0.7-1.5-1.4-2.9-2.3-4.3c-3.3-6.1-3.3-6.2,3-9.2c12.1-5.8,25.8-7.2,38.8-4c12.4,3,20,11.7,20.8,24.5
		C1100.6,244.6,1099.9,260.4,1100.1,276.2z M1190.2,207.2c-9.2,21-18.3,42-27.4,63c-3,7-5.8,14.2-9.3,20.9
		c-8.2,15.7-27,20.7-42.5,11.8c-3.1-1.8-4.1-3.6-1.7-6.5c0.4-0.6,0.7-1.1,1-1.8c1.2-2.2,2-5.3,3.9-6.4s3.9,1.9,6.1,2.8
		c9.8,3.8,18.7-0.8,21.1-11c0.4-1.7-0.5-2.9-1-4.2c-9.8-22.7-19.7-45.5-29.7-68.2c-1.4-3.3-1.3-4.4,2.6-4.2
		c4.5,0.3,9.9-1.2,13.4,0.7s4.1,7.8,5.9,11.9c5.5,12.8,10.9,25.6,16.4,38.5c0.5,1.3,1.1,2.4,1.6,3.7c1.5-1,1.7-2.5,2.2-3.9
		c6.8-15.8,13.6-31.5,20.2-47.3c1.1-2.6,2.3-3.9,5.3-3.6c3.1,0.2,6.2,0.2,9.2,0C1191,203.3,1191.6,204.1,1190.2,207.2z"/>
	<path d="M82,67.9L82,67.9l1.7-0.9C82.7,66.4,82,66.5,82,67.9z"/>
	<path d="M82.8,320.7c0.5,0.4,1.2,0.3,1.6-0.1h-1.7C82.7,320.6,82.7,320.6,82.8,320.7z"/>
	<path d="M663.8,217.6c-11-0.1-19.7,5.7-22.4,14.9c-0.3,0.9-0.5,1.8-0.6,2.7c-2,14.6,7.5,25.2,22.6,25.2c4.3,0.1,8.6-0.9,12.4-2.9
		c8.5-4.8,12.3-14.3,9.8-24.2C683.3,223.9,674.8,217.8,663.8,217.6z"/>
	<path d="M943.6,196.5c-9.2-1.6-18.5-0.5-27.7-0.7c-2-0.1-1.9,1.4-1.9,2.8c0,5.5,0,11,0,16.5c0,5.6,0,11.3,0,16.9
		c0,1.6,0.2,3,2.3,2.9c9.2-0.3,18.5,0.9,27.7-0.8c10.6-2.1,15.9-8.7,15.8-19.1C959.6,204.8,954.2,198.3,943.6,196.5z"/>
	<path d="M800.3,216.7c-10,0-18.5,6.2-20.8,15.1c-0.6,2.5-0.1,3.4,2.6,3.3c6.1-0.1,12.1,0,18.1,0c6.2,0,12.3-0.1,18.5,0
		c2.5,0,2.9-0.8,2.4-3.1C818.7,223,810.3,216.8,800.3,216.7z"/>
	<path d="M1075.5,246.5c-1.8-0.1-3.5-0.1-5.3,0c-4.2,0.1-8.9-0.4-13.5,0.8c-4.8,1.3-7.4,4.3-7.6,8.7s2.2,7.9,6.6,9.6
		c4.3,1.5,9,1.8,13.5,0.6c5.5-1.3,9.9-4.1,12.5-9.3c1.4-2.9,1.6-6.3,0.4-9.4C1081.2,245.1,1077.8,246.8,1075.5,246.5z"/>
	<path d="M481.2,217.6c-13.2-0.1-22.4,9.4-22.5,23.4s9,23.6,22.2,23.6c13.1,0,22.2-9.5,22.3-23.2
		C503.4,227.5,494.5,217.7,481.2,217.6z"/>
	<path d="M572.3,217.6c-13.2-0.2-22.5,9.2-22.7,23.2s8.8,23.7,22,23.8c13,0.2,22.3-9.4,22.5-23C594.4,227.7,585.6,217.9,572.3,217.6
		z"/>
	<path d="M613.6,84.3c-10.3,0-17.8,7.9-17.8,18.7c0.1,10.6,7.6,18.3,17.7,18.3c10.4,0,17.8-7.8,17.7-18.7
		C631.2,92,623.9,84.3,613.6,84.3z"/>
	<path d="M356.7,104.6c8.6,0,17.2,0,25.8,0c1.6,0,2.3-0.5,1.5-2.1l-14.5-31.9c-5.1,11.2-9.7,21.3-14.3,31.4
		C354.4,103.7,354.3,104.6,356.7,104.6z"/>
	<path d="M687.3,84.2c-8.1-0.3-15.2,5.3-16.8,13.3c-0.4,2.2-0.1,3.2,2.4,3.1c4.7-0.1,9.4,0,14.1,0c4.7,0,9.4-0.1,14,0
		c2.1,0,2.8-0.6,2.5-2.8C702.3,90.3,695.3,84.3,687.3,84.2z"/>
	<path d="M966.2,100.6c4.6-0.1,9.3,0,14,0s9.3-0.1,14,0c2.5,0.1,2.9-0.9,2.5-3.1c-1.3-7.4-8.4-13.2-16.4-13.3
		c-8.1-0.1-15.3,5.8-16.5,13.5C963.5,99.8,964,100.6,966.2,100.6z"/>
	<path d="M561.7,120.4c5.4-2,8.3-6.4,8.3-12.4c-0.9-1,1.7-4.2-1.9-4.3c-6.3-0.1-12.6-0.8-18.8,0.6c-6.7,1.5-9.1,9.7-4.2,14.1
		S555.9,122.5,561.7,120.4z"/>
	<path d="M453.2,119.5c7.1,4.9,19.3,1.7,22.9-6.1c1.3-2.8,1.4-6.1,0.3-9c-0.8-1.9-3.9-0.6-5.9-0.8c-1.1-0.1-2.1-0.1-3.2,0
		c-3.7,0-7.6-0.2-11.2,0.7c-3.6,0.9-5.9,3.1-6.4,6.9C449,114.4,450.4,117.7,453.2,119.5z"/>
	<path d="M759.8,84.3c-10.2,0.1-17.5,7.9-17.5,18.5c0,10.8,7.7,18.7,17.9,18.6s17.5-7.8,17.5-18.6S769.9,84.2,759.8,84.3z"/>
</g>
</svg>
