<?xml version="1.0" encoding="utf-8"?>
<!-- Generator: Adobe Illustrator 26.0.3, SVG Export Plug-In . SVG Version: 6.00 Build 0)  -->
<svg version="1.1" id="Calque_1" xmlns="http://www.w3.org/2000/svg" xmlns:xlink="http://www.w3.org/1999/xlink" x="0px" y="0px"
	 viewBox="0 0 32 32" style="enable-background:new 0 0 32 32;" xml:space="preserve">
<style type="text/css">
	.st0{fill:#006039;}
	.st1{fill:#FFFFFF;}
</style>
<rect class="st0" width="32" height="32"/>
<path class="st1" d="M5.7,25.1V9.8H2.1L2.3,7h10.5l-0.3,2.8H9.2v15L5.7,25.1z"/>
<path class="st1" d="M20.4,22.5c-0.8-1.9-1.3-4.2-1.3-6.9c0-1.5,0.2-2.9,0.6-4.2c0.4-1.4,1-2.5,1.9-3.4c0.9-0.9,1.9-1.3,3.2-1.3
	c1,0,1.9,0.3,2.6,0.9c0.8,0.6,1.3,1.4,1.7,2.4s0.6,2,0.6,3.1l-3.4,0.2c0-0.7-0.1-1.5-0.4-2.4c-0.2-0.9-0.7-1.4-1.4-1.4
	c-0.7,0-1.3,0.6-1.6,1.8c-0.3,1.2-0.4,2.6-0.4,4.3c0,2.1,0.2,3.7,0.5,5c0.3,1.2,0.9,1.9,1.8,1.9c0.6,0,1.1-0.4,1.4-1.1
	s0.4-1.7,0.5-2.8l3,0.3c0,1.1-0.2,2.2-0.6,3.2c-0.4,1-1,1.8-1.7,2.4c-0.8,0.6-1.7,0.9-2.8,0.9C22.6,25.3,21.2,24.4,20.4,22.5z"/>
<rect x="15" y="2" class="st1" width="1.2" height="28"/>
</svg>
