<svg xmlns="http://www.w3.org/2000/svg" viewBox="0 0 630.4 630.1" style="enable-background:new 0 0 630.4 630.1" xml:space="preserve"><path d="M441.5 441.3 382 419.9c-11 8.3-22.8 15.5-35.3 21.3 48.3 22.2 93.9 50.1 135.7 83.1.7-1.3 1.6-2.5 2.7-3.6l35.8-35.9c1.1-1 2.3-1.9 3.7-2.6-32.9-41.8-60.8-87.4-83.1-135.7-6 12.5-13.3 24.3-21.7 35.2l21.7 59.6z"/><path d="M396.8 396.5c83-83 74.4-226.7-19.2-320.3C330.8 28.4 266.9 1 199.9 0 146.7-.8 95.4 19.8 57.3 57.1 16.8 98.4-3.9 155.3.6 213 4.9 275.3 32 333.7 76.5 377.4c93.6 93.5 237.3 102.1 320.3 19.1zm-238.2 1.1c-21-10.4-40.2-24-57.1-40.3l44.2-44.2 48.3 48.3-34.9 34.9c-.3.4-.5.8-.5 1.3zm89.6-89.8-48.3 47.7-48.3-47.7 48.3-48.3 48.3 48.3zm-96.6-108.2 48.3-48.3 48.3 48.3-48.3 48.4-48.3-48.4zm53.9 53.9 48.3-48.3 48.3 48.3-48.3 48.3-48.3-48.3zm102.3 5.7 48.4 48.6-48.4 47.7-48.3-47.7 48.3-48.6zm5.6-5.7 48.3-48.3 48.3 48.3-48.3 48.3-48.3-48.3zm-5.6-5.5-48.3-48.4 48.3-48.3 48.4 48.3-48.4 48.4zm-54-54-48.3-48.3 48.3-48.3 48.3 48.3-48.3 48.3zm-53.9-53.9-41.1-41.2L207 50.6l41.1 41.2-48.2 48.3zm-5.6 5.6L146 194l-41.2-41.2 48.3-48.3 41.2 41.2zm-54 53.9L92 248l-41.2-41.2 48.3-48.3 41.2 41.1zm5.7 5.6 48.3 48.3-48.3 48.3-48.4-48.3 48.4-48.3zm101.1 211.3c-.7.8-1.1 1.8-1.1 2.9-27.6-.7-54.9-6.9-80.1-18.3l34-34 48.3 48.3-1.1 1.1zm-41.6-55.1 48.3-48.3 48.3 48.3-48.3 48.3-48.3-48.3zm55.7 57.6c-.1-1-.5-1.9-1.1-2.6l-1-1 48.3-48.3 29.5 29.5c-23 13.2-48.8 21-75.3 22.6l-.4-.2zm109.4-48.2c-8.2 8.2-17.2 15.4-26.9 21.7-.1-.3-.3-.5-.5-.7L313 361.4l48.3-48.3 30.2 30.2.7.5c-6.1 9.7-13.2 18.7-21.2 26.9l-.4.1zm25.8-33.8-29.1-29.2 48.4-48.3 1 1c.7.7 1.6 1.1 2.6 1.1-1.6 26.5-9.3 52.3-22.4 75.4h-.5zm23.4-91.4c-1 0-2.1.4-2.8 1.2l-1.1 1.2-48.6-48.4 34-34c11.5 25.1 17.8 52.3 18.5 80zM398 158.1c-.4.2-.8.4-1.1.8L361.7 194l-48.3-48.3 44.2-44.2c16.3 16.7 29.8 35.8 40.2 56.7l.2-.1zM295 55.8c20.9 10.3 40.1 23.7 56.9 39.8l-44.2 44.2-48.3-48.3 34.8-34.8.8-.9zm-74.9-18.5c.7-.7 1-1.5 1.1-2.5 23 2 45.4 7.9 66.4 17.3l-33.8 33.8-40.9-40.7 7.2-7.9zm-8-3.1-4.9 4.9-5-5c2.7.2 6.4.2 9.6.4l.3-.3zm-19.3 0c.1 1 .4 1.9 1.1 2.6l8 8L153.1 93l-36.2-36.2c23.2-13.1 49.1-20.6 75.7-22.1l.2-.5zM83.1 82.9c8.2-8.1 17.2-15.4 26.9-21.7 0 0 0 .6.5.7l36.9 36.9-48.3 48.4-37.4-37.4c6.2-9.7 13.4-18.7 21.4-26.9zm-25.8 33.9 36.2 36-48.3 48.3-8-8c-.7-.7-1.6-1.1-2.6-1.1 1.8-26.4 9.5-52.2 22.7-75.2zM34.6 202l5 5-4.9 4.9c-.1-3.5-.2-6.8-.1-10.1v.2zm.7 19.2c.9-.1 1.8-.5 2.5-1.1l7.4-7.4 41.2 41.1-33.8 33.8c-9.4-21.1-15.3-43.7-17.3-66.7v.3zm22 73L92 259.4l48.3 48.4L96.2 352c-16.1-16.8-29.6-36-39.8-56.9l.9-.9zM488.1 532.6c0 2.3 1 4.6 2.6 6.2l88.8 88.8c3.5 3.4 9 3.4 12.4 0l35.9-35.8c3.4-3.5 3.4-9 0-12.5l-88.7-88.5c-1.6-1.7-3.9-2.6-6.2-2.6-2.3 0-4.6.9-6.2 2.6l-35.8 35.8c-1.7 1.6-2.6 3.7-2.8 6z"/></svg>