<?xml version="1.0" encoding="utf-8"?>
<!-- Generator: Adobe Illustrator 26.3.1, SVG Export Plug-In . SVG Version: 6.00 Build 0)  -->
<svg version="1.1" id="Calque_1" xmlns="http://www.w3.org/2000/svg" xmlns:xlink="http://www.w3.org/1999/xlink" x="0px" y="0px"
	 viewBox="0 0 700 669.2" style="enable-background:new 0 0 700 669.2;" xml:space="preserve">
<g>
	<path d="M408.6,420.4c0-12.5-10.3-22.1-22.1-22.1H151.7c-12.5,0-22.1,10.3-22.1,22.1c0,12.5,10.3,22.1,22.1,22.1h234.9
		C398.3,442.5,408.6,432.9,408.6,420.4z"/>
	<path d="M151.7,329.8h234.9c12.5,0,22.1-10.3,22.1-22.1c0-12.5-10.3-22.1-22.1-22.1H151.7c-12.5,0-22.1,10.3-22.1,22.1
		C129.6,319.5,139.9,329.8,151.7,329.8z"/>
	<path d="M129.6,533.8c0,12.5,10.3,22.1,22.1,22.1h191.4l10.3-44.9l-201.7,0C139.1,510.9,129.6,521.2,129.6,533.8L129.6,533.8z"/>
	<path d="M395.3,580.1l56.7-12.5c2.2-0.7,4.4-2.2,6.6-3.7l16.2-16.2l-62.6-62.6l-16.2,16.2c-2.2,2.2-3.7,4.4-3.7,6.6l-13.2,56.7
		C376.9,573.5,385.8,582.3,395.3,580.1L395.3,580.1z"/>
	<g>
		<path d="M493.3,610.3c0,7.4-5.9,14-14,14H58.2c-8.1,0-14-6.6-14-14l0-552.2c0-7.4,5.9-14,14-14h263.6v114.1
			c0,32.4,25.8,58.2,58.2,58.2h113.4v134l44.9-44.9v-96.4c0-15.5-6.6-30.2-17.7-41.2L370.3,16.9C359.3,5.9,344.5,0,329.1,0H58.2
			C25.8,0,0,26.5,0,58.2v552.9c0,31.7,25.8,58.2,58.2,58.2h421.1c32.4,0,58.9-26.5,58.9-58.2v-74.4l-44.9,44.9L493.3,610.3z
			 M366.6,75.8l95.7,95.7l-82.5,0c-8.1,0-14-5.9-14-14V75.8L366.6,75.8z"/>
		<path d="M435.8,461.6l62.6,62.6l145-145l-62.6-63.3L435.8,461.6z"/>
		<path d="M695.7,307.7l-44.2-44.2c-5.2-5.2-13.2-5.2-18.4,0l-28,28l62.6,62.6l28-27.2C700.9,321.7,700.9,312.9,695.7,307.7
			L695.7,307.7z"/>
	</g>
</g>
</svg>
